<svg width="194" height="158" viewBox="0 0 194 158" fill="none" xmlns="http://www.w3.org/2000/svg">
<ellipse cx="98" cy="81.5" rx="59" ry="43.5" fill="#202020"/>
<path d="M96.1705 12.1315C86.4511 10.5384 76.545 10.6803 67.0178 12.5491C57.4907 14.418 48.529 17.9771 40.6446 23.0233C32.7601 28.0696 26.1072 34.5041 21.0658 41.9596C16.0244 49.415 12.6931 57.7453 11.2623 66.4749C9.8314 75.2045 10.3289 84.1624 12.7264 92.8372C15.124 101.512 19.3745 109.734 25.2354 117.033C31.0963 124.332 38.4528 130.566 46.8848 135.379C55.3169 140.191 64.6593 143.488 74.3787 145.081L82.0059 98.5488C79.09 98.0708 76.2873 97.0817 73.7577 95.638C71.2281 94.1942 69.0211 92.3241 67.2629 90.1343C65.5046 87.9445 64.2294 85.478 63.5102 82.8756C62.7909 80.2731 62.6417 77.5858 63.0709 74.9669C63.5002 72.348 64.4996 69.8489 66.012 67.6123C67.5244 65.3757 69.5203 63.4453 71.8856 61.9314C74.251 60.4175 76.9394 59.3498 79.7976 58.7892C82.6557 58.2285 85.6276 58.1859 88.5434 58.6639L96.1705 12.1315Z" fill="#F5F5F5"/>
<path d="M118.652 143.189C138.441 141.183 156.734 132.484 169.506 119.005C182.277 105.526 188.481 88.371 186.753 71.3139C185.024 54.2568 175.505 38.6949 160.289 28.0517C145.074 17.4084 125.408 12.5556 105.618 14.5609L110.18 59.5807C116.117 58.9791 122.016 60.4349 126.581 63.6279C131.146 66.8209 134.002 71.4894 134.52 76.6066C135.039 81.7237 133.177 86.8702 129.346 90.914C125.515 94.9577 120.027 97.5674 114.09 98.169L118.652 143.189Z" fill="#F5F5F5"/>
</svg>
